<svg width="91" height="56" viewBox="0 0 91 56" fill="none" xmlns="http://www.w3.org/2000/svg">
<path d="M47.2119 36.3375C47.2119 36.4336 47.2119 36.4816 47.241 36.5115C47.2701 36.5414 47.3168 36.5414 47.4105 36.5414C47.5042 36.5414 47.5509 36.5414 47.58 36.5115C47.6091 36.4816 47.6091 36.4336 47.6091 36.3375V36.2356C47.6091 36.1395 47.6091 36.0915 47.58 36.0616C47.5509 36.0317 47.5042 36.0317 47.4105 36.0317C47.3168 36.0317 47.2701 36.0317 47.241 36.0616C47.2119 36.0915 47.2119 36.1395 47.2119 36.2356V36.3375ZM47.7829 36.1846C47.7829 36.1371 47.7829 36.1134 47.7905 36.0947C47.7955 36.0823 47.8028 36.0711 47.812 36.0616C47.8212 36.0521 47.8322 36.0446 47.8442 36.0395C47.8625 36.0317 47.8856 36.0317 47.9319 36.0317H48.0312C48.0775 36.0317 48.1006 36.0317 48.1189 36.0395C48.1309 36.0446 48.1419 36.0521 48.1511 36.0616C48.1603 36.0711 48.1676 36.0823 48.1726 36.0947C48.1802 36.1134 48.1802 36.1371 48.1802 36.1846C48.1802 36.2321 48.1802 36.2559 48.1726 36.2746C48.1676 36.287 48.1603 36.2982 48.1511 36.3077C48.1419 36.3171 48.1309 36.3246 48.1189 36.3298C48.1006 36.3375 48.0775 36.3375 48.0312 36.3375H47.9319C47.8856 36.3375 47.8625 36.3375 47.8442 36.3298C47.8322 36.3246 47.8212 36.3171 47.812 36.3077C47.8028 36.2982 47.7955 36.287 47.7905 36.2746C47.7829 36.2559 47.7829 36.2321 47.7829 36.1846Z" fill="#2B3042"/>
<path d="M47.2119 36.8472C47.2119 36.8947 47.2119 36.9184 47.2194 36.9371C47.2244 36.9495 47.2317 36.9607 47.241 36.9702C47.2502 36.9797 47.2611 36.9872 47.2732 36.9923C47.2914 37 47.3146 37 47.3608 37H47.4602C47.5064 37 47.5296 37 47.5478 36.9923C47.5599 36.9872 47.5708 36.9797 47.58 36.9702C47.5893 36.9607 47.5966 36.9495 47.6016 36.9371C47.6091 36.9184 47.6091 36.8947 47.6091 36.8472C47.6091 36.7997 47.6091 36.7759 47.6016 36.7572C47.5966 36.7448 47.5893 36.7336 47.58 36.7241C47.5708 36.7146 47.5599 36.7071 47.5478 36.702C47.5296 36.6943 47.5064 36.6943 47.4602 36.6943H47.3608C47.3146 36.6943 47.2914 36.6943 47.2732 36.702C47.2611 36.7071 47.2502 36.7146 47.241 36.7241C47.2317 36.7336 47.2244 36.7448 47.2194 36.7572C47.2119 36.7759 47.2119 36.7997 47.2119 36.8472Z" fill="#2B3042"/>
<path d="M47.7829 36.6943C47.7829 36.5981 47.7829 36.5501 47.812 36.5203C47.8411 36.4904 47.8879 36.4904 47.9815 36.4904C48.0752 36.4904 48.122 36.4904 48.1511 36.5203C48.1802 36.5501 48.1802 36.5981 48.1802 36.6943V36.7962C48.1802 36.8923 48.1802 36.9403 48.1511 36.9702C48.122 37 48.0752 37 47.9815 37C47.8879 37 47.8411 37 47.812 36.9702C47.7829 36.9403 47.7829 36.8923 47.7829 36.7962V36.6943Z" fill="#2B3042"/>
<path d="M36.5 24.6842C36.5 26.4709 36.5 27.3634 37.0409 27.9185C37.5818 28.4737 38.4514 28.4737 40.1923 28.4737C41.9332 28.4737 42.8028 28.4737 43.3437 27.9185C43.8846 27.3634 43.8846 26.4709 43.8846 24.6842V22.7895C43.8846 21.0027 43.8846 20.1103 43.3437 19.5552C42.8028 19 41.9332 19 40.1923 19C38.4514 19 37.5818 19 37.0409 19.5552C36.5 20.1103 36.5 21.0027 36.5 22.7895V24.6842ZM47.1154 21.8421C47.1154 20.9592 47.1154 20.5177 47.2557 20.17C47.3485 19.94 47.4845 19.7309 47.656 19.5549C47.8276 19.3788 48.0312 19.2392 48.2554 19.144C48.5941 19 49.0243 19 49.8846 19H51.7308C52.5911 19 53.0212 19 53.36 19.144C53.5841 19.2392 53.7878 19.3788 53.9593 19.5549C54.1309 19.7309 54.2669 19.94 54.3597 20.17C54.5 20.5177 54.5 20.9592 54.5 21.8421C54.5 22.7251 54.5 23.1665 54.3597 23.5142C54.2669 23.7442 54.1309 23.9533 53.9593 24.1293C53.7878 24.3054 53.5841 24.445 53.36 24.5402C53.0212 24.6842 52.5911 24.6842 51.7308 24.6842H49.8846C49.0243 24.6842 48.5941 24.6842 48.2554 24.5402C48.0312 24.445 47.8276 24.3054 47.656 24.1293C47.4845 23.9533 47.3485 23.7442 47.2557 23.5142C47.1154 23.1665 47.1154 22.7251 47.1154 21.8421Z" stroke="#2B3042" stroke-width="1.6"/>
<path d="M36.5 34.1579C36.5 35.0408 36.5 35.4823 36.6403 35.83C36.7331 36.06 36.8691 36.2691 37.0407 36.4451C37.2122 36.6212 37.4159 36.7608 37.64 36.856C37.9788 37 38.4089 37 39.2692 37H41.1154C41.9757 37 42.4058 37 42.7446 36.856C42.9688 36.7608 43.1724 36.6212 43.3439 36.4451C43.5155 36.2691 43.6515 36.06 43.7443 35.83C43.8846 35.4823 43.8846 35.0408 43.8846 34.1579C43.8846 33.275 43.8846 32.8335 43.7443 32.4858C43.6515 32.2558 43.5155 32.0467 43.3439 31.8707C43.1724 31.6946 42.9688 31.555 42.7446 31.4598C42.4058 31.3158 41.9757 31.3158 41.1154 31.3158H39.2692C38.4089 31.3158 37.9788 31.3158 37.64 31.4598C37.4159 31.555 37.2122 31.6946 37.0407 31.8707C36.8691 32.0467 36.7331 32.2558 36.6403 32.4858C36.5 32.8335 36.5 33.275 36.5 34.1579Z" stroke="#2B3042" stroke-width="1.6"/>
<path d="M47.1154 31.3158C47.1154 29.5291 47.1154 28.6367 47.6563 28.0815C48.1972 27.5264 49.0667 27.5264 50.8077 27.5264C52.5486 27.5264 53.4181 27.5264 53.959 28.0815C54.5 28.6367 54.5 29.5291 54.5 31.3158V33.2106C54.5 34.9973 54.5 35.8897 53.959 36.4449C53.4181 37 52.5486 37 50.8077 37C49.0667 37 48.1972 37 47.6563 36.4449C47.1154 35.8897 47.1154 34.9973 47.1154 33.2106V31.3158Z" stroke="#2B3042" stroke-width="1.6"/>
<path opacity="0.5" d="M40.1591 21.7817V25.5464M50.7488 30.3081V34.0728" stroke="#2B3042" stroke-width="1.60215" stroke-linecap="round" stroke-linejoin="round"/>
</svg>
